<svg width="30" height="30" viewBox="0 0 30 30" fill="none" xmlns="http://www.w3.org/2000/svg">
<path d="M8.75875 15C8.75875 14.7513 8.85752 14.5129 9.03334 14.3371C9.20915 14.1613 9.44761 14.0625 9.69625 14.0625H14.0625V9.69623C14.0625 9.44759 14.1613 9.20913 14.3371 9.03332C14.5129 8.8575 14.7514 8.75873 15 8.75873C15.2486 8.75873 15.4871 8.8575 15.6629 9.03332C15.8387 9.20913 15.9375 9.44759 15.9375 9.69623V14.0625H20.3038C20.5524 14.0625 20.7908 14.1613 20.9667 14.3371C21.1425 14.5129 21.2413 14.7513 21.2413 15C21.2413 15.2486 21.1425 15.4871 20.9667 15.6629C20.7908 15.8387 20.5524 15.9375 20.3038 15.9375H15.9375V20.3037C15.9375 20.5524 15.8387 20.7908 15.6629 20.9666C15.4871 21.1425 15.2486 21.2412 15 21.2412C14.7514 21.2412 14.5129 21.1425 14.3371 20.9666C14.1613 20.7908 14.0625 20.5524 14.0625 20.3037V15.9375H9.69625C9.44761 15.9375 9.20915 15.8387 9.03334 15.6629C8.85752 15.4871 8.75875 15.2486 8.75875 15Z" fill="black"/>
<path fill-rule="evenodd" clip-rule="evenodd" d="M9.14625 4.71125C13.0368 4.27993 16.9632 4.27993 20.8538 4.71125C23.1375 4.96625 24.9812 6.765 25.2487 9.06125C25.7112 13.0075 25.7112 16.9937 25.2487 20.94C24.98 23.2362 23.1363 25.0337 20.8538 25.29C16.9632 25.7213 13.0368 25.7213 9.14625 25.29C6.8625 25.0337 5.01875 23.2362 4.75125 20.94C4.29082 16.9938 4.29082 13.0074 4.75125 9.06125C5.01875 6.765 6.86375 4.96625 9.14625 4.71125ZM20.6463 6.57375C16.8936 6.15778 13.1064 6.15778 9.35375 6.57375C8.65905 6.65082 8.01063 6.95984 7.51322 7.45089C7.01582 7.94195 6.69849 8.58635 6.6125 9.28C6.16791 13.0812 6.16791 16.9213 6.6125 20.7225C6.69875 21.4159 7.0162 22.06 7.51358 22.5508C8.01096 23.0416 8.65924 23.3505 9.35375 23.4275C13.075 23.8425 16.925 23.8425 20.6463 23.4275C21.3405 23.3502 21.9885 23.0413 22.4857 22.5505C22.9828 22.0597 23.3001 21.4157 23.3862 20.7225C23.8308 16.9213 23.8308 13.0812 23.3862 9.28C23.2998 8.58699 22.9824 7.94331 22.4853 7.45278C21.9882 6.96225 21.3403 6.65347 20.6463 6.57625" fill="black"/>
</svg>
