<svg width="14" height="14" viewBox="0 0 14 14" fill="none" xmlns="http://www.w3.org/2000/svg">
<path fill-rule="evenodd" clip-rule="evenodd" d="M4.95942 13.2439L11.7933 4.40645C12.1647 3.92988 12.2967 3.3789 12.1729 2.81788C12.0656 2.30787 11.752 1.82293 11.2816 1.45505L10.1343 0.543716C9.13566 -0.250569 7.89765 -0.16696 7.18785 0.744378L6.42028 1.74016C6.32124 1.86474 6.346 2.04868 6.4698 2.14901C6.4698 2.14901 8.40936 3.70414 8.45063 3.73758C8.58268 3.86299 8.68173 4.03021 8.70649 4.23087C8.74775 4.62384 8.47539 4.99172 8.07097 5.04188C7.88114 5.06696 7.69957 5.00844 7.56751 4.89975L5.52891 3.27773C5.42987 3.20332 5.28131 3.2192 5.19877 3.31954L0.353997 9.59021C0.0403655 9.98317 -0.0669294 10.4932 0.0403655 10.9865L0.659374 13.6703C0.692388 13.8125 0.81619 13.9128 0.964752 13.9128L3.68839 13.8794C4.1836 13.871 4.64579 13.6452 4.95942 13.2439ZM8.7701 12.4072H13.2113C13.6446 12.4072 13.997 12.7642 13.997 13.2032C13.997 13.643 13.6446 13.9991 13.2113 13.9991H8.7701C8.3368 13.9991 7.98438 13.643 7.98438 13.2032C7.98438 12.7642 8.3368 12.4072 8.7701 12.4072Z" fill="#007AFF"/>
</svg>
