<svg width="20" height="20" viewBox="0 0 20 20" fill="none" xmlns="http://www.w3.org/2000/svg">
<path fill-rule="evenodd" clip-rule="evenodd" d="M6.12127 3.3475C8.6995 3.06204 11.3014 3.06204 13.8796 3.3475C15.3071 3.5075 16.4588 4.63167 16.6263 6.06417C16.9318 8.67916 16.9318 11.3208 16.6263 13.9358C16.4588 15.3683 15.3071 16.4925 13.8796 16.6525C11.3014 16.938 8.6995 16.938 6.12127 16.6525C4.69377 16.4925 3.5421 15.3683 3.3746 13.9358C3.06914 11.3211 3.06914 8.67972 3.3746 6.065C3.45932 5.36906 3.77658 4.72212 4.27496 4.22904C4.77334 3.73595 5.42363 3.42562 6.12043 3.34833M10.0004 5.83917C10.1662 5.83917 10.3252 5.90501 10.4424 6.02222C10.5596 6.13944 10.6254 6.29841 10.6254 6.46417V9.375H13.5363C13.702 9.375 13.861 9.44085 13.9782 9.55806C14.0954 9.67527 14.1613 9.83424 14.1613 10C14.1613 10.1658 14.0954 10.3247 13.9782 10.4419C13.861 10.5592 13.702 10.625 13.5363 10.625H10.6254V13.5358C10.6254 13.7016 10.5596 13.8606 10.4424 13.9778C10.3252 14.095 10.1662 14.1608 10.0004 14.1608C9.83467 14.1608 9.6757 14.095 9.55849 13.9778C9.44128 13.8606 9.37543 13.7016 9.37543 13.5358V10.625H6.4646C6.29884 10.625 6.13987 10.5592 6.02266 10.4419C5.90545 10.3247 5.8396 10.1658 5.8396 10C5.8396 9.83424 5.90545 9.67527 6.02266 9.55806C6.13987 9.44085 6.29884 9.375 6.4646 9.375H9.37543V6.46417C9.37543 6.29841 9.44128 6.13944 9.55849 6.02222C9.6757 5.90501 9.83467 5.83917 10.0004 5.83917Z" fill="#8FB4F8"/>
</svg>
