<svg width="27" height="28" viewBox="0 0 27 28" fill="none" xmlns="http://www.w3.org/2000/svg">
<path d="M11.799 0.609056C12.28 0.215039 12.8806 0 13.5 0C14.1194 0 14.72 0.215039 15.201 0.609056L25.4988 9.03315C25.9671 9.41603 26.3448 9.89958 26.6045 10.4486C26.8642 10.9975 26.9993 11.5981 27 12.2065V24.54C27 25.2631 26.7155 25.9565 26.2092 26.4678C25.7028 26.979 25.0161 27.2663 24.3 27.2663H18.9C18.1839 27.2663 17.4972 26.979 16.9908 26.4678C16.4845 25.9565 16.2 25.2631 16.2 24.54V16.3613H10.8V24.54C10.8 25.2631 10.5155 25.9565 10.0092 26.4678C9.50284 26.979 8.81608 27.2663 8.1 27.2663H2.7C1.98392 27.2663 1.29716 26.979 0.790812 26.4678C0.284463 25.9565 7.92692e-08 25.2631 7.92692e-08 24.54V12.2092C-0.000119304 11.5999 0.134611 10.9983 0.394343 10.4483C0.654074 9.89831 1.03224 9.41388 1.5012 9.03042L11.799 0.609056ZM23.8005 11.1487L13.5 2.73007L3.1995 11.1487C3.04323 11.2767 2.91727 11.4384 2.83085 11.6219C2.74442 11.8054 2.69972 12.006 2.7 12.2092V24.54H8.1V16.3613C8.1 15.6383 8.38446 14.9448 8.89081 14.4335C9.39716 13.9223 10.0839 13.6351 10.8 13.6351H16.2C16.9161 13.6351 17.6028 13.9223 18.1092 14.4335C18.6155 14.9448 18.9 15.6383 18.9 16.3613V24.54H24.3V12.2092C24.3003 12.006 24.2556 11.8054 24.1692 11.6219C24.0827 11.4384 23.9568 11.2767 23.8005 11.1487Z" fill="black"/>
</svg>
