<svg width="25" height="25" viewBox="0 0 25 25" fill="none" xmlns="http://www.w3.org/2000/svg">
<path d="M21.8172 16.4423L24.0597 14.1777C24.9803 13.248 24.9803 11.7343 24.0597 10.8046L21.8172 8.5519V5.34568C21.8172 4.03459 20.7549 2.96188 19.4566 2.96188H16.2817L14.0392 0.697263C13.1186 -0.232421 11.6197 -0.232421 10.6991 0.697263L8.46838 2.96188H5.29348C3.99519 2.96188 2.93295 4.03459 2.93295 5.34568V8.5519L0.690454 10.8165C-0.230151 11.7462 -0.230151 13.2599 0.690454 14.1896L2.93295 16.4542V19.6485C2.93295 20.9596 3.99519 22.0323 5.29348 22.0323H8.46838L10.7109 24.2969C11.6315 25.2266 13.1304 25.2266 14.051 24.2969L16.2935 22.0323H19.4566C20.7549 22.0323 21.8172 20.9596 21.8172 19.6485V16.4423ZM12.3751 18.3374V6.65677C12.3751 5.92971 13.0242 5.33376 13.7324 5.47679C16.9899 6.12042 19.4566 9.01674 19.4566 12.4971C19.4566 15.9774 16.9899 18.8738 13.7324 19.5174C13.0242 19.6604 12.3751 19.0645 12.3751 18.3374Z" fill="black"/>
</svg>
