<svg width="18" height="25" viewBox="0 0 18 25" fill="none" xmlns="http://www.w3.org/2000/svg">
<path fill-rule="evenodd" clip-rule="evenodd" d="M0 3.375C0 2.47989 0.355579 1.62145 0.988515 0.988515C1.62145 0.355579 2.47989 0 3.375 0H14.625C15.5201 0 16.3786 0.355579 17.0115 0.988515C17.6444 1.62145 18 2.47989 18 3.375V21.4065C18 22.779 16.4475 23.5778 15.3315 22.7801L9 18.2576L2.6685 22.7801C1.55138 23.5789 0 22.7801 0 21.4076V3.375ZM3.375 2.25C3.07663 2.25 2.79048 2.36853 2.5795 2.5795C2.36853 2.79048 2.25 3.07663 2.25 3.375V20.3141L8.019 16.1932C8.30523 15.9887 8.64822 15.8788 9 15.8788C9.35178 15.8788 9.69477 15.9887 9.981 16.1932L15.75 20.3141V3.375C15.75 3.07663 15.6315 2.79048 15.4205 2.5795C15.2095 2.36853 14.9234 2.25 14.625 2.25H3.375Z" fill="black"/>
</svg>
